<?xml version="1.0" encoding="utf-8"?>
<!-- Svg Vector Icons : http://www.onlinewebfonts.com/icon -->
<!DOCTYPE svg PUBLIC "-//W3C//DTD SVG 1.1//EN" "http://www.w3.org/Graphics/SVG/1.1/DTD/svg11.dtd">
<svg version="1.1" xmlns="http://www.w3.org/2000/svg" xmlns:xlink="http://www.w3.org/1999/xlink" x="0px" y="0px" viewBox="0 0 1000 1000" enable-background="new 0 0 1000 1000" xml:space="preserve">
<metadata> Svg Vector Icons : http://www.onlinewebfonts.com/icon </metadata>
<g><path fill="none" enable-background="new" d="M10,2.2"/><path d="M959.1,802H794.2v164.9c0,17.1-13.8,30.9-30.9,30.9s-30.9-13.8-30.9-30.9V802H567.4c-17.1,0-30.9-13.8-30.9-30.9s13.8-30.9,30.9-30.9h164.9V575.2c0-17.1,13.8-30.9,30.9-30.9s30.9,13.8,30.9,30.9v164.9h164.9c17.1,0,30.9,13.8,30.9,30.9C990,788.2,976.2,802,959.1,802L959.1,802z"/><path d="M752.7,266.5C747.8,133.8,638.1,23.9,505.3,18.8c-146.9-5.6-267.8,111.8-267.8,257.5c0,91.7,48.1,172,120.2,217.7C178.9,551.7,46.2,718.4,41.7,914.7c-0.4,17.1,13.1,31.2,30.2,31.6c17.2,0.7,31.2-13.1,31.6-30.2C108.4,705.4,284.1,534,495.2,534c41.3,0,81,6.9,118.5,19.2c3,1,6,1.5,9.1,1.5h0.8c34.8,0,43.4-49.4,10.3-60.2c-0.4-0.1-0.9-0.3-1.3-0.4C707.4,446.7,756.3,362.3,752.7,266.5L752.7,266.5z M495.2,472.1c-108,0-195.8-87.9-195.8-195.9c0-108,87.9-195.8,195.8-195.8c108,0,195.9,87.9,195.9,195.8S603.2,472.1,495.2,472.1z"/></g>
</svg>