<svg width="10" height="8" viewBox="0 0 10 8" fill="none" xmlns="http://www.w3.org/2000/svg">
<path fill-rule="evenodd" clip-rule="evenodd" d="M4.4851 0.24879L0.475146 7.19011C0.271472 7.5427 0.505758 8 0.890046 8H8.90993C9.29425 8 9.52852 7.5427 9.32483 7.19011L5.31491 0.24879C5.12326 -0.0829303 4.67673 -0.0829298 4.4851 0.24879ZM4.39999 3C4.39999 2.72386 4.62385 2.5 4.9 2.5C5.17615 2.5 5.39999 2.72386 5.39999 3V5.00001C5.39999 5.27615 5.17615 5.5 4.9 5.5C4.62385 5.5 4.39999 5.27615 4.39999 5.00001V3ZM4.39999 6.5C4.39999 6.22385 4.62385 6 4.9 6C5.17615 6 5.39999 6.22385 5.39999 6.5C5.39999 6.77615 5.17615 7 4.9 7C4.62385 7 4.39999 6.77615 4.39999 6.5Z" fill="#FF3E1D"/>
</svg>
