<?xml version="1.0" standalone="no"?>
<!DOCTYPE svg PUBLIC "-//W3C//DTD SVG 20010904//EN"
 "http://www.w3.org/TR/2001/REC-SVG-20010904/DTD/svg10.dtd">
<svg version="1.0" xmlns="http://www.w3.org/2000/svg"
 width="2476.000000pt" height="2476.000000pt" viewBox="0 0 2476.000000 2476.000000"
 preserveAspectRatio="xMidYMid meet">

<g transform="translate(0.000000,2476.000000) scale(0.100000,-0.100000)"
fill="#000000" stroke="none">
<path d="M13867 16152 l-3347 -3347 745 -745 745 -745 3348 3348 3347 3347
-745 745 -745 745 -3348 -3348z"/>
<path d="M17586 13869 l-5579 -5631 -2231 2231 -2231 2231 -745 -745 -745
-745 2978 -2978 2977 -2977 6375 6375 c3506 3506 6374 6378 6373 6382 -3 7
-1587 1488 -1592 1488 -1 0 -2512 -2534 -5580 -5631z"/>
<path d="M740 11955 l-745 -745 2978 -2978 2977 -2977 745 745 745 745 -2978
2978 -2977 2977 -745 -745z"/>
</g>
</svg>
