<svg width="48" height="48" viewBox="0 0 48 48" fill="none" xmlns="http://www.w3.org/2000/svg">
<rect width="48" height="48" rx="24" fill="#b7b5ee"/>
<path fill-rule="evenodd" clip-rule="evenodd" d="M20.375 21.8125C20.375 18.6023 22.9773 16 26.1875 16C29.3977 16 32 18.6023 32 21.8125C32 25.0227 29.3977 27.625 26.1875 27.625C25.6543 27.625 25.1302 27.5529 24.6266 27.4127L23.5393 28.5H22.3751V30.25H20.6251V32H16V27.9608L20.5873 23.3735C20.4471 22.8698 20.375 22.3458 20.375 21.8125ZM22.7109 26.5L24.1234 25.0875L24.7395 25.3407C25.1944 25.5276 25.6833 25.625 26.1875 25.625C28.2931 25.625 30 23.9181 30 21.8125C30 19.7069 28.2931 18 26.1875 18C24.0819 18 22.375 19.7069 22.375 21.8125C22.375 22.3167 22.4724 22.8057 22.6593 23.2605L22.9125 23.8767L18 28.7892V30H18.6251V28.25H20.3751V26.5H22.7109ZM26 20.5C26 21.3284 26.6716 22 27.5 22C28.3284 22 29 21.3284 29 20.5C29 19.6716 28.3284 19 27.5 19C26.6716 19 26 19.6716 26 20.5Z" fill="#130856"/>
</svg>
